<?xml version="1.0" encoding="utf-8"?>
<!-- Generator: Adobe Illustrator 24.0.2, SVG Export Plug-In . SVG Version: 6.00 Build 0)  -->
<svg version="1.1" id="Capa_1" xmlns="http://www.w3.org/2000/svg" xmlns:xlink="http://www.w3.org/1999/xlink" x="0px" y="0px"
	 viewBox="0 0 628.2 181.5" style="enable-background:new 0 0 628.2 181.5;" xml:space="preserve">
<style type="text/css">
	.st0{fill:#003C9B;}
	.st1{fill:#314FAB;}
	.st2{fill:#00B4DC;}
</style>
<g>
	<path class="st0" d="M467.7,173.9c0-9.6-0.1-19.2,0-28.8c0.1-5,0.5-9.9,4.1-13.9c4-4.6,11.9-6.3,18.4-4c5.8,2.1,9.7,7.8,9.9,14.1
		c0.1,3.1,0.3,6.1-0.4,9.1c-1,4.5-3.2,7.7-7.3,10.4c-5.3,3.5-10.2,2.7-15.5,1.3c-1.3-0.4-2.4-1.3-3.8-2c0,4.7,0,9.3,0,13.9
		C471.4,173.9,469.6,173.9,467.7,173.9z M494.9,144.8c0.1-3.8-0.5-7.3-2.6-10.7c-2.7-4.5-12-5.6-15.8-0.7
		c-4.3,5.5-4.5,15.3-1.2,21.1c3.7,6.5,13.3,6.5,17.4,0.2C494.7,151.7,494.8,148.3,494.9,144.8z"/>
	<path class="st0" d="M621.5,156c-3.7,7.2-10.3,7.6-17.2,7.1c-1.8-0.1-3.6,0-5.4-0.8c-1.6-0.7-2.5-2.9-1.7-4.3
		c0.6-1,1.3-0.1,1.9,0.1c4,1.5,8.2,1.9,12.3,0.7c2.7-0.8,4.7-2.5,4.7-5.6c0-2.7-1.7-4.3-4-5.4c-3.8-1.9-7.7-3.3-11.2-5.8
		c-4.5-3.2-4.6-10.3,0-13.3c5.7-3.7,11.8-3.1,17.9-1.2c2,0.6,0.5,2.3,0.5,3.4c-0.1,1.2-1.1,0.3-1.7,0.1c-4-0.8-7.9-1.9-11.9-0.3
		c-1.9,0.8-3.2,2.1-3.3,4.2c-0.2,2,0.8,3.5,2.6,4.4c3.3,1.6,6.7,3.2,10,4.9c2.7,1.3,5,3,5.9,6c0,0.1,0.4,0.2,0.6,0.2
		C621.5,152.3,621.5,154.2,621.5,156z"/>
	<path class="st0" d="M105.1,82.5c11.3,1.6,20.2,6.6,25.6,16.8c3.7,7,4.6,14.6,4.2,22.4c-0.3,5.7-1,11.4-3.5,16.6
		c-4.6,9.9-13.1,15-23,18.1c-9.9,3.1-20.2,3.8-30.6,4.2c-22.6,0.9-45.2,0.1-67.9,0.4c-4.1,0.1-4.3-0.2-4.3-4.3
		c0-49.4,0-98.8,0-148.1c0-3.8,0.3-4.1,4-4.1c21.1,0,42.3-0.2,63.4,0.1c11.2,0.1,22.5,1,33.4,4.2c6.6,1.9,12.9,4.4,18.2,9.3
		c5.8,5.3,8.8,12,9.8,19.5c1.1,7.7,1.1,15.5-1.4,23c-3.9,12.1-12.4,18.9-24.5,21.9C107.5,82.5,106.3,82.5,105.1,82.5z M31,82.6
		c0,20.7,0,41.4,0,62.1c0,2.1,0.4,2.9,2.8,2.9c15.8-0.1,31.7-0.1,47.5,0c10.1,0.1,21.5-7.4,25.4-17.3c4.2-10.4,3.4-20.4-3.7-29.5
		c-3.7-4.8-8.5-8.2-14.5-9.8c-5.5-1.5-11.1-1.7-16.8-1.5c-1.9,0.1-2.7-0.7-2.7-2.6c0.1-2.6,0.1-5.1,0-7.7c-0.2-2.6,1.1-3.4,3.4-3.4
		c2.8,0,5.6,0,8.5,0c7.5,0,13.8-2.7,19.2-7.7c9.9-9.3,12.1-24.3,5-35.9c-6.2-10.2-15.7-14.7-27.6-14.6c-14.4,0.1-28.9,0.1-43.3,0
		c-2.5,0-3.3,0.5-3.3,3.2C31.1,41.3,31,61.9,31,82.6z"/>
	<path class="st0" d="M375.8,148c1.4,0.2,1.9,1.1,1.9,2.5c0,2.8,0,5.6,0,8.5c0,1.7-0.8,2.4-2.4,2.4c-1.7,0-3.5,0-5.2,0
		c-19.3,0-38.6-0.1-58,0c-12.1,0.1-22.9-8.7-25.2-20.7c-0.1-0.6-0.3-1.2-0.7-1.8c-0.7,5.7-3.3,10.3-7.2,14.4
		c-4.9,5.2-11,7.7-17.9,7.8c-17.5,0.2-35,0.3-52.5,0c-11.4-0.2-21.4-8.1-24-19.4c-0.6-2.8-0.8-5.5-0.8-8.4c0-16.1,0-32.1,0-48.2
		c0-12.3,8.9-23.4,21-26.2c3.7-0.9,4.7-0.1,4.7,3.6c0,21.5,0.2,43.1-0.1,64.6c-0.1,10.8,5.6,16.4,13.7,18.8
		c9.8,2.8,19.6,2.7,28.9-2.2c5-2.7,7.9-6.9,8.4-12.6c0.1-0.7,0.2-1.3,0.3-2c0.1-0.6,0.2-1.1,0.2-1.7c0-21.9,0-43.9,0-65.8
		c0-0.7-0.1-1.3-0.1-2c1.5-1.1,3.2-0.7,4.7-0.4c7.6,1.6,13.2,6.1,17.2,12.6c1.7,2.7,2.9,5.7,3.3,9.2c0.9-0.6,0.8-1.4,0.9-2.2
		c2.6-11.2,9.7-17.5,19.8-20.1c2.4-0.6,4.9-0.6,7.4-0.6c19.9,0,39.8,0,59.7,0c3.4,0,3.9,0.4,3.9,3.8c0,2.2-0.1,4.5,0,6.7
		c0.1,2-0.7,2.7-2.8,2.7c-15-0.1-30-0.1-45,0c-4.3,0-8.4,0.8-12.1,3.5c-4.5,3.4-8.3,12-4.2,19.4c3.1,5.6,7.8,8.5,14.3,8.6
		c4.6,0,9.3,0,13.9,0c2.8,0,3.3,0.6,3.4,3.3c0,2.5-0.2,5,0,7.5c0.2,2.4-0.9,3-3,3c-4.2-0.1-8.5,0-12.7,0c-4,0-7.6,0.8-11,3
		c-6,4-8.3,12.7-5.2,19.2c2.3,4.7,5.9,7.8,11.1,9c0.3,0.1,0.6,0.3,0.9,0.3C342.1,148,358.9,148,375.8,148z M286.4,88.4
		c0,14.2,0,28.4,0,42.7c1.5-5.2,3.7-9.9,7.6-13.8c3.9-4,8.8-6.1,14.1-7.5C296.5,107,289.4,99.9,286.4,88.4z"/>
	<path class="st0" d="M146.7,82.7c0-24.8,0-49.7,0-74.5c0-3.4,0.5-3.8,3.9-3.8c5.8,0,11.6,0,17.4,0c3.1,0,3.9,0.8,3.9,3.7
		c0,17.4,0.2,34.8-0.1,52.2c-0.3,18.8-0.2,37.6-0.1,56.4c0.1,13.3,0,26.7,0.1,40c0,4-0.3,4.4-4.3,4.4c-5.8,0-11.6,0-17.4,0
		c-3,0-3.4-0.5-3.4-3.5C146.7,132.6,146.7,107.6,146.7,82.7C146.7,82.7,146.7,82.7,146.7,82.7z"/>
	<path class="st0" d="M546.8,146c-3.8,0-7.6,0-11.4,0c-1.3,0-1.6,0.3-1.5,1.7c0.7,7.5,5.2,11.8,12.8,11.8c0.7,0,1.5,0.1,2.2,0
		c1.2-0.1,2.1-0.2,2,1.5c-0.1,1.3,0.1,2.5-1.9,2.3c-2.9-0.3-5.9,0.4-8.9-0.5c-5.8-1.8-9.6-5.4-10.9-11.6c-1.5-7.1-1-13.7,3.7-19.5
		c4.3-5.3,10.1-6.4,16.5-5c5.6,1.3,9.7,6.2,10.5,12.2c1,7.1,1,7.1-6.2,7.1C551.5,146,549.1,146,546.8,146z M544.5,142.1
		c3,0,6,0,8.9,0c0.6,0,1.6,0.4,1.6-0.9c-0.1-4.8-2.4-9.8-7.8-11c-5.9-1.3-12.1,3.3-13.2,9.7c-0.3,1.7-0.1,2.3,1.8,2.2
		C538.7,142,541.6,142.1,544.5,142.1z"/>
	<path class="st0" d="M413.8,146c-3.9,0-7.8,0-11.7,0c-0.8,0-1.8-0.3-1.6,1.1c0.5,4.7,2,9,6.6,11.3c2.8,1.4,6,1,9,0.9
		c0.7,0,1.6-0.4,1.5,0.8c-0.2,1,0.8,2.8-0.8,2.8c-3.6,0.1-7.2,0.5-10.8-0.7c-5.5-1.9-8.7-5.7-9.9-11.3c-1.5-6.8-1.1-13.3,3.4-19
		c4.2-5.5,10-6.8,16.4-5.4c6.1,1.4,9.5,5.6,10.8,11.6c1.6,7.3,1.3,7.7-6,7.7C418.2,146,416,146,413.8,146z M411,142.1
		c3.1,0,6.1,0,9.2,0c0.7,0,1.7,0.2,1.6-1c-0.3-4.6-2.3-9.8-8.1-10.9c-6.2-1.2-12.8,4.4-13.1,10.8c-0.1,1.2,0.5,1.1,1.3,1.1
		C404.9,142,407.9,142,411,142.1z"/>
	<path class="st0" d="M460.3,127.1c-3.7,5-7.1,10-10.8,14.7c-1.1,1.5-1,2.4,0,3.8c4,5.4,7.8,10.9,11.7,16.4
		c-4.1,1.2-5.4,0.8-7.6-2.5c-2.7-4-5.3-8-8.2-12.2c-2.9,4.1-6,7.9-8.5,12c-1.9,3.1-4.2,3.8-7.7,2.9c2.7-3.8,5.4-7.6,8-11.3
		c1.3-1.9,2.6-3.8,4.1-5.6c1-1.2,0.8-2-0.1-3.2c-3.7-4.9-7.2-9.8-10.9-14.9c3.8-1,6.4-0.1,8.4,3.3c1.9,3.3,4.4,6.4,6.7,9.7
		c2.5-3.5,5-6.6,7-10C454.3,127.2,456.7,126.1,460.3,127.1z"/>
	<path class="st0" d="M567.5,157.4c4.6,2,9.1,2.7,13.7,1.5c2.4-0.7,4.5-1.9,4.7-4.8c0.3-3.1-0.7-4.6-3.8-6.2
		c-3.6-1.9-7.3-3.4-10.8-5.5c-6-3.5-4.4-11.9,0.8-14.4c5.6-2.7,11.1-2.1,16.7-0.5c2.1,0.6,0.7,2.3,0.6,3.3c-0.1,1.4-1.1,0.4-1.7,0.3
		c-4-0.8-7.9-1.9-11.9-0.4c-2.1,0.8-3.2,2.1-3.5,4.3c-0.3,2.2,0.9,3.4,2.6,4.3c3.7,1.9,7.5,3.6,11.1,5.5c4.4,2.3,6.2,6.1,5.1,10.9
		c-0.8,3.8-3.8,5.6-7.1,6.6c-5.2,1.7-10.4,1.1-15.7-0.1c-1.2-0.3-1.6-1-1.3-2.2C567.2,159.2,567.3,158.4,567.5,157.4z"/>
	<path class="st0" d="M507.8,152.4c0-5.7-0.2-11.4,1.7-16.9c1.8-5.1,7.8-9.6,13.3-9.4c0.9,0,1.5,0.3,1.3,1.3c-0.2,0.9,1,2.5-1,2.7
		c-6.8,0.8-9.4,7.2-9.7,12.7c-0.3,5.9-0.2,11.7-0.2,17.6c0,2.3-1.2,2.1-2.6,2c-1.4,0-3,0.5-2.8-2.1
		C508,157.8,507.8,155.1,507.8,152.4z"/>
	<path class="st1" d="M375.8,148c-16.9,0-33.7,0.1-50.6,0.1c-0.3,0-0.6-0.2-0.9-0.3c16.9,0,33.7-0.1,50.6-0.1
		C375.2,147.7,375.5,147.9,375.8,148z"/>
	<path class="st2" d="M286.4,88.4c3,11.5,10.1,18.6,21.7,21.3c-5.4,1.4-10.2,3.5-14.1,7.5c-3.9,3.9-6.1,8.7-7.6,13.8
		C286.4,116.9,286.4,102.7,286.4,88.4z"/>
</g>
</svg>
