<?xml version="1.0" encoding="utf-8"?>
<!-- Generator: Adobe Illustrator 24.0.2, SVG Export Plug-In . SVG Version: 6.00 Build 0)  -->
<svg version="1.1" xmlns="http://www.w3.org/2000/svg" xmlns:xlink="http://www.w3.org/1999/xlink" x="0px" y="0px"
	 viewBox="0 0 383.9 235.1" style="enable-background:new 0 0 383.9 235.1;" xml:space="preserve">
<style type="text/css">
	.st0{fill:#0033A1;}
	.st1{fill:none;}
	.st2{fill:#4AC1E0;}
	.st3{fill:#FFFFFF;}
	.st4{display:none;}
	.st5{display:inline;}
</style>
<g id="Capa_1">
	<g>
		<path class="st0" d="M45.7,220.1c-13.9,0-25.3-10.7-25.3-26.4v-0.2c0-14.6,10.3-26.4,24.3-26.4c15,0,23.5,12.2,23.5,25.7
			c0,2.1-1.7,3.5-3.5,3.5H28.1c1.1,11,8.8,17.1,17.8,17.1c6.3,0,10.9-2.4,14.6-5.9c0.6-0.5,1.3-0.9,2.2-0.9c1.9,0,3.3,1.5,3.3,3.2
			c0,0.9-0.4,1.8-1.2,2.4C60,217.1,54.3,220.1,45.7,220.1z M60.7,190.8c-0.8-9.2-6.1-17.2-16.2-17.2c-8.8,0-15.5,7.3-16.5,17.2H60.7
			z"/>
		<path class="st0" d="M75.5,213.5L92,193.2l-15.6-19.1c-0.8-0.9-1.2-1.8-1.2-2.7c0-2.2,1.6-3.5,3.5-3.5c1.5,0,2.4,0.7,3.3,1.8
			l14.6,18.5l14.5-18.4c0.9-1.1,1.9-1.9,3.2-1.9c2,0,3.4,1.5,3.4,3.4c0,1-0.4,1.8-1,2.4L101.1,193l16.5,20.2
			c0.7,0.9,1.1,1.8,1.1,2.7c0,2.1-1.6,3.5-3.5,3.5c-1.5,0-2.4-0.7-3.3-1.8l-15.4-19.5l-15.3,19.4c-0.9,1.1-1.9,1.9-3.2,1.9
			c-2,0-3.4-1.6-3.4-3.4C74.5,215,74.8,214.2,75.5,213.5z"/>
		<path class="st0" d="M131,171.6c0-2.2,1.7-3.8,3.7-3.8c2.2,0,3.8,1.7,3.8,3.8v6.9c4.1-6.1,10.1-11.3,19.4-11.3
			c12.1,0,24.2,9.6,24.2,26.3v0.2c0,16.6-12,26.4-24.2,26.4c-9.4,0-15.5-5.1-19.4-10.8v22c0,2.2-1.6,3.8-3.7,3.8
			c-2.2,0-3.8-1.7-3.8-3.8V171.6z M174.4,193.8v-0.2c0-12-8.2-19.6-17.8-19.6c-9.4,0-18.3,7.9-18.3,19.5v0.2
			c0,11.8,8.9,19.6,18.3,19.6C166.4,213.3,174.4,206,174.4,193.8z"/>
		<path class="st0" d="M194.1,171.6c0-2.1,1.7-3.8,3.7-3.8c2.2,0,3.8,1.7,3.8,3.8v9.5c3.7-8.4,11.1-13.5,17.4-13.5
			c2.3,0,3.7,1.7,3.7,3.8c0,2.1-1.4,3.5-3.3,3.8c-9.8,1.2-17.8,8.5-17.8,23.1v17.2c0,2.1-1.6,3.8-3.7,3.8c-2.2,0-3.8-1.7-3.8-3.8
			V171.6z"/>
		<path class="st0" d="M251.8,220.1c-13.9,0-25.3-10.7-25.3-26.4v-0.2c0-14.6,10.3-26.4,24.3-26.4c15,0,23.5,12.2,23.5,25.7
			c0,2.1-1.7,3.5-3.5,3.5h-36.6c1.1,11,8.8,17.1,17.8,17.1c6.3,0,10.9-2.4,14.6-5.9c0.6-0.5,1.3-0.9,2.2-0.9c1.9,0,3.3,1.5,3.3,3.2
			c0,0.9-0.4,1.8-1.2,2.4C266.1,217.1,260.5,220.1,251.8,220.1z M266.8,190.8c-0.8-9.2-6.1-17.2-16.2-17.2
			c-8.8,0-15.5,7.3-16.5,17.2H266.8z"/>
		<path class="st0" d="M283,213.5c-0.7-0.5-1.4-1.5-1.4-2.7c0-1.8,1.5-3.2,3.3-3.2c0.7,0,1.4,0.2,1.9,0.6c5.2,3.5,10.6,5.4,16.1,5.4
			c6.1,0,10.5-3.1,10.5-8v-0.2c0-5.1-6-7.1-12.6-8.9c-7.9-2.3-16.8-5-16.8-14.3v-0.2c0-8.7,7.3-14.5,17.2-14.5
			c5.4,0,11.3,1.7,16.2,4.3c1,0.6,1.9,1.7,1.9,3.1c0,1.8-1.5,3.2-3.3,3.2c-0.7,0-1.3-0.2-1.7-0.4c-4.3-2.4-8.9-3.9-13.2-3.9
			c-6,0-9.8,3.1-9.8,7.3v0.2c0,4.8,6.3,6.7,13,8.7c7.8,2.4,16.3,5.4,16.3,14.5v0.2c0,9.6-7.9,15.2-18,15.2
			C295.8,219.9,288.5,217.5,283,213.5z"/>
		<path class="st0" d="M328.9,213.5c-0.7-0.5-1.4-1.5-1.4-2.7c0-1.8,1.5-3.2,3.3-3.2c0.7,0,1.4,0.2,1.9,0.6
			c5.2,3.5,10.6,5.4,16.1,5.4c6.1,0,10.5-3.1,10.5-8v-0.2c0-5.1-6-7.1-12.6-8.9c-7.9-2.3-16.8-5-16.8-14.3v-0.2
			c0-8.7,7.3-14.5,17.2-14.5c5.4,0,11.3,1.7,16.2,4.3c1,0.6,1.9,1.7,1.9,3.1c0,1.8-1.5,3.2-3.3,3.2c-0.7,0-1.3-0.2-1.7-0.4
			c-4.3-2.4-8.9-3.9-13.2-3.9c-6,0-9.8,3.1-9.8,7.3v0.2c0,4.8,6.3,6.7,13,8.7c7.8,2.4,16.3,5.4,16.3,14.5v0.2
			c0,9.6-7.9,15.2-18,15.2C341.7,219.9,334.3,217.5,328.9,213.5z"/>
		<path class="st0" d="M137.5,15.4c0-7.5,6-13.5,13.5-13.5c7.5,0,13.5,6,13.5,13.5v125.2c0,7.5-6,13.5-13.5,13.5
			c-7.5,0-13.5-6-13.5-13.5V15.4z"/>
		<path class="st0" d="M268,140.8c0,7.5-6.1,13.6-13.6,13.6c-7.5,0-13.6-6.1-13.6-13.6v-1.1c-6.3,8.1-14.4,15.4-28.2,15.4
			c-20.6,0-32.7-13.6-32.7-35.7V69.7c0-7.5,6.1-13.6,13.6-13.6c7.5,0,13.6,6.1,13.6,13.6v41.1c0,12.9,6.1,19.6,16.5,19.6
			c10.4,0,17.1-6.6,17.1-19.6V69.7c0-7.5,6.1-13.6,13.6-13.6c7.5,0,13.6,6.1,13.6,13.6V140.8z"/>
		<g>
			<path class="st0" d="M329.5,156.1c-28.9,0.3-50.5-19.7-50.8-49.2l0-0.4c-0.3-27.5,19-50.3,47-50.6c32.1-0.3,46.6,25.9,46.8,45.8
				c0.1,7.9-5.4,13.2-12.6,13.2l-54,0.6c2.8,12.4,11.5,18.7,23.7,18.6c7.5-0.1,13.8-2.5,19.3-6.7c2-1.5,3.7-2.2,6.6-2.2
				c6.1-0.1,10.6,4.6,10.7,10.7c0,3.6-1.5,6.3-3.5,8.1C354.4,151.4,343.5,156,329.5,156.1z M346.5,98.1c-1.7-12.2-9-20.4-20.5-20.2
				c-11.3,0.1-18.6,8.3-20.6,20.7L346.5,98.1z"/>
		</g>
		<line class="st0" x1="302.9" y1="99.1" x2="348.3" y2="98.6"/>
		<path class="st1" d="M44.4,98.1c0,0.2,0,0.4,0,0.6v0.7c0.2,13.8,11.4,24.9,25.2,24.9c13.9,0,25.2-11.3,25.2-25.2
			c0-13.8-11-25-24.8-25.2"/>
		<path class="st0" d="M44.4,14.8C44.4,6.6,37.8,0,29.6,0h0c-8.2,0-14.8,6.6-14.8,14.8v85.1h0c0.4,29.9,24.8,54,54.8,54
			c30.3,0,54.8-24.5,54.8-54.8c0-30.1-24.3-54.5-54.3-54.8v29.6C83.8,74.1,94.8,85.3,94.8,99c0,13.9-11.3,25.2-25.2,25.2
			c-13.8,0-25-11.1-25.2-24.9v-0.7c0-0.2,0-0.4,0-0.6l0,0l0.4-47.9L44.4,14.8z"/>
		<g>
			<path class="st2" d="M58.4,79.8c-10.8,0-19.5-8.8-19.5-19.5c0-10.8,8.8-19.5,19.5-19.5c10.8,0,19.5,8.8,19.5,19.5
				C77.9,71,69.2,79.8,58.4,79.8z"/>
			<path class="st3" d="M58.4,44.2c8.8,0,16,7.2,16,16c0,8.8-7.2,16-16,16s-16-7.2-16-16C42.4,51.4,49.6,44.2,58.4,44.2 M58.4,37.2
				c-12.7,0-23,10.3-23,23s10.3,23,23,23s23-10.3,23-23S71.1,37.2,58.4,37.2L58.4,37.2z"/>
		</g>
	</g>
</g>
<g id="Layer_2" class="st4">
	<g class="st5">
		<path class="st3" d="M44.2,219.9c-13.9,0-25.2-10.7-25.2-26.3v-0.2c0-14.6,10.3-26.3,24.3-26.3c15,0,23.5,12.2,23.5,25.6
			c0,2.1-1.7,3.5-3.5,3.5H26.6c1.1,11,8.8,17.1,17.8,17.1c6.3,0,10.9-2.4,14.6-5.9c0.6-0.5,1.3-0.9,2.2-0.9c1.9,0,3.3,1.5,3.3,3.2
			c0,0.9-0.4,1.8-1.2,2.4C58.5,216.9,52.8,219.9,44.2,219.9z M59.2,190.7c-0.8-9.2-6.1-17.2-16.1-17.2c-8.8,0-15.5,7.3-16.4,17.2
			H59.2z"/>
		<path class="st3" d="M74,213.4L90.5,193L74.9,174c-0.8-0.9-1.2-1.8-1.2-2.7c0-2.2,1.6-3.5,3.5-3.5c1.5,0,2.4,0.7,3.3,1.8
			l14.6,18.5l14.5-18.4c0.9-1.1,1.9-1.9,3.2-1.9c2,0,3.4,1.5,3.4,3.4c0,1-0.4,1.8-1,2.4l-15.7,19.3L116,213c0.7,0.9,1.1,1.8,1.1,2.7
			c0,2.1-1.6,3.5-3.5,3.5c-1.5,0-2.4-0.7-3.3-1.8L94.9,198l-15.3,19.4c-0.9,1.1-1.9,1.9-3.2,1.9c-2,0-3.4-1.6-3.4-3.4
			C73,214.8,73.3,214.1,74,213.4z"/>
		<path class="st3" d="M129.4,171.5c0-2.2,1.7-3.8,3.7-3.8c2.2,0,3.8,1.7,3.8,3.8v6.8c4.1-6.1,10.1-11.2,19.4-11.2
			c12.1,0,24.2,9.6,24.2,26.2v0.2c0,16.5-11.9,26.3-24.2,26.3c-9.4,0-15.5-5.1-19.4-10.8v22c0,2.2-1.6,3.8-3.7,3.8
			c-2.2,0-3.8-1.7-3.8-3.8V171.5z M172.7,193.6v-0.2c0-11.9-8.2-19.6-17.8-19.6c-9.4,0-18.3,7.9-18.3,19.5v0.2
			c0,11.7,8.9,19.6,18.3,19.6C164.7,213.1,172.7,205.8,172.7,193.6z"/>
		<path class="st3" d="M192.4,171.5c0-2.1,1.7-3.8,3.7-3.8c2.2,0,3.8,1.7,3.8,3.8v9.5c3.7-8.4,11.1-13.5,17.4-13.5
			c2.2,0,3.7,1.7,3.7,3.8c0,2.1-1.4,3.5-3.3,3.8c-9.8,1.2-17.8,8.5-17.8,23.1v17.2c0,2.1-1.6,3.8-3.7,3.8c-2.2,0-3.8-1.7-3.8-3.8
			V171.5z"/>
		<path class="st3" d="M250,219.9c-13.9,0-25.2-10.7-25.2-26.3v-0.2c0-14.6,10.3-26.3,24.3-26.3c15,0,23.5,12.2,23.5,25.6
			c0,2.1-1.7,3.5-3.5,3.5h-36.6c1.1,11,8.8,17.1,17.8,17.1c6.3,0,10.9-2.4,14.6-5.9c0.6-0.5,1.3-0.9,2.2-0.9c1.9,0,3.3,1.5,3.3,3.2
			c0,0.9-0.4,1.8-1.2,2.4C264.3,216.9,258.6,219.9,250,219.9z M265,190.7c-0.8-9.2-6.1-17.2-16.1-17.2c-8.8,0-15.5,7.3-16.4,17.2
			H265z"/>
		<path class="st3" d="M281.1,213.4c-0.7-0.5-1.4-1.5-1.4-2.7c0-1.8,1.5-3.2,3.3-3.2c0.7,0,1.4,0.2,1.9,0.6c5.2,3.5,10.6,5.4,16,5.4
			c6.1,0,10.5-3.1,10.5-8v-0.2c0-5.1-6-7-12.6-8.9c-7.9-2.2-16.7-5-16.7-14.3v-0.2c0-8.7,7.2-14.5,17.2-14.5
			c5.4,0,11.2,1.7,16.1,4.3c1,0.6,1.9,1.7,1.9,3.1c0,1.8-1.5,3.2-3.3,3.2c-0.7,0-1.3-0.2-1.7-0.4c-4.3-2.4-8.9-3.9-13.2-3.9
			c-6,0-9.8,3.1-9.8,7.3v0.2c0,4.8,6.3,6.6,13,8.7c7.8,2.3,16.2,5.4,16.2,14.5v0.2c0,9.6-7.9,15.2-18,15.2
			C293.9,219.7,286.6,217.3,281.1,213.4z"/>
		<path class="st3" d="M326.9,213.4c-0.7-0.5-1.4-1.5-1.4-2.7c0-1.8,1.5-3.2,3.3-3.2c0.7,0,1.4,0.2,1.9,0.6c5.2,3.5,10.6,5.4,16,5.4
			c6.1,0,10.5-3.1,10.5-8v-0.2c0-5.1-6-7-12.6-8.9c-7.9-2.2-16.7-5-16.7-14.3v-0.2c0-8.7,7.2-14.5,17.2-14.5
			c5.4,0,11.2,1.7,16.1,4.3c1,0.6,1.9,1.7,1.9,3.1c0,1.8-1.5,3.2-3.3,3.2c-0.7,0-1.3-0.2-1.7-0.4c-4.3-2.4-8.9-3.9-13.2-3.9
			c-6,0-9.8,3.1-9.8,7.3v0.2c0,4.8,6.3,6.6,13,8.7c7.8,2.3,16.2,5.4,16.2,14.5v0.2c0,9.6-7.9,15.2-18,15.2
			C339.7,219.7,332.3,217.3,326.9,213.4z"/>
		<path class="st3" d="M135.9,15.6c0-7.4,6-13.5,13.5-13.5c7.4,0,13.5,6,13.5,13.5v124.9c0,7.4-6,13.5-13.5,13.5
			c-7.4,0-13.5-6-13.5-13.5V15.6z"/>
		<path class="st3" d="M266.1,140.8c0,7.5-6.1,13.6-13.6,13.6s-13.6-6.1-13.6-13.6v-1.1c-6.3,8.1-14.3,15.4-28.1,15.4
			c-20.6,0-32.6-13.6-32.6-35.7V69.8c0-7.5,6.1-13.6,13.6-13.6c7.5,0,13.6,6.1,13.6,13.6v41c0,12.9,6.1,19.5,16.5,19.5
			c10.4,0,17-6.6,17-19.5v-41c0-7.5,6.1-13.6,13.6-13.6s13.6,6.1,13.6,13.6V140.8z"/>
		<path class="st3" d="M327.6,156c-28.8,0.3-50.4-19.7-50.7-49.1l0-0.4c-0.3-27.4,19-50.2,46.9-50.5c32.1-0.3,46.5,25.8,46.7,45.7
			c0.1,7.9-5.4,13.1-12.6,13.2l-53.9,0.6c2.8,12.3,11.5,18.7,23.7,18.6c7.5-0.1,13.8-2.5,19.3-6.7c2-1.5,3.7-2.2,6.6-2.2
			c6.1-0.1,10.6,4.5,10.7,10.6c0,3.6-1.5,6.3-3.5,8.1C352.4,151.3,341.5,155.9,327.6,156z M344.5,98.2c-1.7-12.2-9-20.3-20.5-20.2
			c-11.3,0.1-18.5,8.3-20.6,20.6L344.5,98.2z"/>
		<line class="st3" x1="301" y1="99.1" x2="346.3" y2="98.6"/>
		<path class="st1" d="M42.9,98.1c0,0.2,0,0.4,0,0.6v0.7c0.2,13.7,11.4,24.8,25.2,24.8c13.9,0,25.2-11.3,25.2-25.2
			c0-13.8-11-24.9-24.7-25.2"/>
		<path class="st3" d="M42.9,15c0-8.2-6.6-14.8-14.8-14.8h0C20,0.2,13.4,6.8,13.4,15v84.9h0c0.4,29.8,24.7,53.9,54.7,53.9
			c30.2,0,54.7-24.5,54.7-54.7c0-30-24.2-54.4-54.2-54.7v29.5c13.7,0.2,24.7,11.4,24.7,25.2c0,13.9-11.3,25.2-25.2,25.2
			c-13.8,0-25-11.1-25.2-24.8v-0.7c0-0.2,0-0.4,0-0.6l0,0l0.4-47.8L42.9,15z"/>
		<g>
			<path class="st0" d="M56.9,79.9c-10.7,0-19.5-8.7-19.5-19.5c0-10.7,8.7-19.5,19.5-19.5c10.7,0,19.5,8.7,19.5,19.5
				C76.4,71.1,67.7,79.9,56.9,79.9z"/>
			<path class="st3" d="M56.9,44.4c8.8,0,16,7.2,16,16c0,8.8-7.2,16-16,16c-8.8,0-16-7.2-16-16C40.9,51.5,48.1,44.4,56.9,44.4
				 M56.9,37.4c-12.7,0-23,10.3-23,23s10.3,23,23,23s23-10.3,23-23S69.6,37.4,56.9,37.4L56.9,37.4z"/>
		</g>
	</g>
</g>
</svg>
